# xmcd
#
# Track frame offsets: 
#        182
#        11875
#        24145
#        38437
#        50172
#        63757
#        77857
#        90992
#        103095
#        118327
#        131730
#        146390
#        159175
#        171912
#        185777
#        198617
#        211505
#        225385
#        236735
#        250050
#
# Disc length: 3483 seconds
#
# Revision: 2
# Processed by: cddbd v1.5.2PL0 Copyright (c) Steve Scherf et al.
# Submitted via: ExactAudioCopyFreeDBPlugin 1.0
#
DISCID=070d9914
DTITLE=Muddy Waters - The Very Best Of Muddy Waters
DYEAR=1995
DGENRE=Blues
TTITLE0=Gypsy Woman
TTITLE1=I Cant be Satisfied
TTITLE2=I Feel Like Going Home
TTITLE3=Youre Gonna Miss Me
TTITLE4=Rollin' and Tumblin'
TTITLE5=Rollin' Stone
TTITLE6=Louisiana Blues
TTITLE7=Long Distance Call
TTITLE8=Honey Bee
TTITLE9=She Moves Me
TTITLE10=Still A Fool
TTITLE11=The Stuff You Gotta Watch
TTITLE12=Please Baby Dont Go
TTITLE13=Mad Love
TTITLE14=I'm Your Hoochie Coochie Man
TTITLE15=I Just Want To Make Love To You
TTITLE16=I'm Ready
TTITLE17=I Want To Be Loved
TTITLE18=Manish Boy
TTITLE19=Sugar Sweet
EXTD=
EXTT0=
EXTT1=
EXTT2=
EXTT3=
EXTT4=
EXTT5=
EXTT6=
EXTT7=
EXTT8=
EXTT9=
EXTT10=
EXTT11=
EXTT12=
EXTT13=
EXTT14=
EXTT15=
EXTT16=
EXTT17=
EXTT18=
EXTT19=
PLAYORDER=
